<?xml version="1.0" encoding="utf-8"?>
<svg width="205.591981pt" height="280.142931pt" viewBox="0 0 205.591981 280.142931" preserveAspectRatio="xMidYMid meet" xmlns="http://www.w3.org/2000/svg">
  <g transform="matrix(-0.1000000014901161, 0, 0, -0.1000000014901161, 389.80001691555844, 293.5027465820312)" style="fill: rgb(0, 0, 0); stroke: none;">
    <path d="M1982 2915 c-17 -14 -35 -25 -40 -25 -12 0 -27 -38 -24 -60 5 -27 25&#10;-60 37 -60 7 0 42 -27 77 -60 l66 -60 129 -6 c83 -5 152 -3 196 5 87 15 184&#10;16 222 1 16 -6 46 -8 69 -4 l39 6 -43 20 c-23 11 -50 18 -60 15 -15 -4 -17 2&#10;-15 40 1 24 -3 46 -8 50 -6 3 -60 7 -121 9 -180 4 -259 22 -341 78 -116 79&#10;-142 86 -183 51z"/>
    <path d="M3158 2759 c-16 -6 -28 -14 -28 -17 0 -4 -15 -8 -32 -9 -18 -2 -44&#10;-11 -58 -21 -18 -14 -49 -20 -115 -24 -59 -4 -83 -3 -72 3 9 6 17 17 17 26 0&#10;12 -7 14 -32 9 -18 -3 -36 -10 -41 -15 -16 -16 2 -46 34 -58 17 -7 28 -17 24&#10;-22 -8 -14 -52 -14 -57 0 -3 8 -17 8 -48 1 -25 -5 -38 -10 -30 -11 8 -1 27&#10;-14 41 -29 15 -15 43 -39 63 -52 23 -16 41 -40 51 -65 19 -55 33 -436 19 -520&#10;-16 -88 -15 -120 6 -153 42 -67 87 -58 168 36 24 29 46 51 49 49 4 -5 110 17&#10;183 38 92 26 160 -13 186 -106 20 -74 10 -138 -36 -231 -28 -56 -34 -78 -24&#10;-78 15 0 85 90 78 102 -3 4 5 12 17 18 28 16 73 114 65 145 -3 13 -2 27 4 30&#10;5 3 10 14 11 23 0 9 10 36 22 58 12 23 32 60 43 82 12 23 27 65 34 94 7 29 19&#10;66 27 81 8 16 11 36 7 45 -7 17 -10 27 -12 48 -3 16 -57 74 -70 74 -5 0 -15&#10;20 -22 45 -13 45 -30 61 -30 28 0 -10 -11 -23 -24 -29 -28 -13 -54 2 -59 34&#10;-2 11 -9 27 -16 36 -7 9 -10 16 -5 16 5 0 1 5 -8 11 -10 5 -18 20 -18 32 -1&#10;21 -1 21 -15 3 -12 -16 -17 -17 -30 -6 -8 7 -15 9 -15 5 0 -7 -52 32 -87 67&#10;-12 12 -32 23 -44 25 -32 5 -35 11 -16 31 71 76 74 84 41 126 -22 28 -33 33&#10;-73 34 -25 0 -58 -4 -73 -9z m298 -357 c-11 -10 -15 4 -8 28 l7 25 3 -23 c2&#10;-13 1 -26 -2 -30z"/>
    <path d="M3435 2730 c-17 -19 -17 -20 1 -26 11 -4 33 -13 50 -19 29 -12 33&#10;-11 44 10 20 36 7 55 -38 55 -26 0 -45 -7 -57 -20z"/>
    <path d="M2066 2071 c-26 -29 -7 -109 36 -157 18 -19 39 -44 48 -56 8 -11 28&#10;-34 45 -49 37 -36 71 -37 159 -4 37 14 75 25 85 25 36 0 34 32 -4 67 -20 18&#10;-40 33 -45 33 -5 0 -11 9 -15 19 -10 34 -103 107 -157 125 -70 22 -130 21&#10;-152 -3z"/>
    <path d="M3247 1795 c-9 -7 -17 -17 -17 -24 0 -6 -5 -11 -10 -11 -6 0 -15 -12&#10;-20 -27 -6 -16 -15 -37 -21 -49 -15 -30 -8 -88 12 -92 22 -4 79 57 79 83 -1&#10;11 -7 28 -15 39 -12 16 -11 21 16 43 16 14 29 28 29 33 0 14 -36 18 -53 5z"/>
    <path d="M1840 1520 c0 -6 12 -15 27 -21 16 -6 43 -22 61 -36 27 -20 40 -24&#10;67 -19 64 12 89 59 28 52 -20 -2 -61 5 -91 15 -62 21 -92 24 -92 9z"/>
    <path d="M1984 1279 c-8 -13 5 -29 24 -29 9 0 37 -7 61 -16 44 -15 71 -13 71&#10;5 0 18 -146 55 -156 40z"/>
    <path d="M2418 983 c-16 -2 -28 -10 -28 -16 0 -7 -11 -19 -25 -27 -30 -19 -20&#10;-40 23 -45 18 -2 41 -13 53 -24 18 -17 20 -27 15 -68 -8 -58 8 -283 24 -335&#10;14 -48 56 -98 82 -98 11 0 27 9 36 20 22 26 55 32 79 15 10 -8 24 -15 32 -15&#10;8 0 22 -7 31 -15 10 -9 46 -17 91 -21 l74 -6 115 82 c109 79 180 142 180 161&#10;0 5 -18 9 -40 9 -82 0 -138 19 -170 58 -17 20 -28 42 -26 49 3 7 1 15 -4 18&#10;-5 3 -12 24 -15 48 -6 37 -10 42 -33 44 -14 0 -28 6 -30 12 -2 6 -25 11 -50&#10;12 -39 1 -43 2 -22 9 24 8 24 8 3 9 -16 1 -21 6 -17 16 4 8 1 15 -4 15 -6 0&#10;-23 11 -38 25 -15 14 -35 25 -44 25 -9 0 -20 3 -23 6 -4 4 -32 8 -64 9 -32 1&#10;-82 10 -112 19 -30 9 -57 15 -60 15 -3 -1 -18 -4 -33 -6z"/>
    <path d="M2151 870 c9 -5 28 -6 45 0 27 8 26 8 -16 9 -32 0 -40 -2 -29 -9z"/>
  </g>
</svg>